<svg viewBox="-120 -240 473 406" width="473" height="406" version="1.1" baseProfile="full" xmlns="http://www.w3.org/2000/svg" class="js-draw--autoresize"><style id="js-draw-style-sheet">path{stroke-linecap:round;stroke-linejoin:round;}text{white-space:pre;}</style><path d="M353,166l0-406l-473,0l0,406l473,0" fill="#ffffff" class="js-draw-image-background"></path><path d="M-120,41l4-4l219,0l0-273l-219,0l0,273l-4,4l0-281l227,0l0,281l-227,0" fill="#803380"></path><path d="M167,166l4-4l178,0l0-135l-178,0l0,135l-4,4l0-143l186,0l0,143l-186,0" fill="#803380"></path><path d="M235,16q-2-59 -52-89q-51-29 -102,0q-50,30 -52,88q2,59 52,89q51,29 102,0q50-30 52-88" fill="none" stroke="#803380" stroke-width="4"></path></svg>